<svg xmlns="http://www.w3.org/2000/svg" version="1.1" viewBox="16 8 78 85" fill="#e8e8e8">
 <path d="m82.867 24.309c-0.35938-2.875-2.8984-4.7734-5.293-4.4258-1.8906 0.27734-3.4961 1.9258-3.8555 4.0898v21.062c0 0.66406-0.53906 1.2031-1.1953 1.2031-0.66016 0-1.1992-0.53906-1.1992-1.2031v-26.934c-0.023438-2.8828-2.4062-5.0234-4.8125-4.8555-1.9414 0.14453-3.6992 1.7812-4.0703 4.0039v29.469c0 0.66016-0.53906 1.2031-1.1992 1.2031-0.65625 0-1.1953-0.54297-1.1953-1.2031v-32.691c-0.046875-2.8359-2.4297-5.0977-5.2109-5.0273-2.7031 0.074219-4.918 2.3594-4.918 5.125v30.898c0 0.66016-0.53906 1.2031-1.1992 1.2031s-1.1992-0.54297-1.1992-1.2031v-22.902c0.10938-2.7539-2.0352-5.0391-4.5703-5.1484-2.707-0.12109-5.125 2.2617-4.9961 5.1953l-0.035156 0.19141v38.043l4.6719 5.0391c1.0625-0.30078 2.6445-0.625 4.5352-0.625 1.5117 0 3.2227 0.21484 5.0195 0.82812 2.0234 0.68359 3.5547 1.6953 4.6211 2.5234 0.51562 0.41016 0.60938 1.168 0.20312 1.6836-0.40625 0.51953-1.1602 0.61328-1.6758 0.20703-0.91016-0.71094-2.2031-1.5664-3.9141-2.1406-1.5117-0.51953-2.9609-0.69922-4.2422-0.69922-2.0352 0-3.6875 0.45703-4.5352 0.73438l-0.73047 0.24219-9.1133-9.8477-4.418-4.6914-0.035156-0.046875c-1.2227-1.4688-3.0312-2.3086-4.957-2.3203-1.5703 0-3.0664 0.5625-4.2148 1.5859-1.3555 1.2031-2.1328 2.957-2.1328 4.8086 0 1.5898 0.5625 3.0898 1.582 4.2695l0.035157 0.046875c3.7695 4.9297 7.6992 9.8711 11.637 14.719 4.9102 6.0352 6.6602 7.9219 7.7617 8.9102 0.40625 0.35938 0.73047 0.61328 1.1133 0.90234 2.8477 2.0781 6.2852 3.5938 10.211 4.4961 3.4844 0.80469 6.7188 0.97266 8.8125 0.97266 0.94922 0 1.8477-0.035156 2.6953-0.097656 0.63672-0.046875 1.0898-0.09375 1.2227-0.11719 0.20313-0.027344 0.68359-0.097656 1.3398-0.21875 4.5273-0.82812 8.8008-2.4766 12.703-4.8945 1.7617-1.1172 3.1992-2.5234 4.3125-4.1953 2.168-3.2227 2.4766-6.6133 2.4766-8.3438v-0.53906-0.039062l0.097656-22.965c-0.035156-8.7773-0.082031-17.543-0.12109-26.316z"/></svg>
