<svg xmlns="http://www.w3.org/2000/svg" xmlns:xlink="http://www.w3.org/1999/xlink" xml:space="preserve" version="1.1" style="shape-rendering:geometricPrecision;text-rendering:geometricPrecision;image-rendering:optimizeQuality;" viewBox="0 0 365 350" fill-rule="evenodd" clip-rule="evenodd"><defs><style type="text/css">
   
    .fil0 {fill:#e8e8e8}
   
  </style></defs><g><path class="fil0" d="M13 194l29 0 0 118c0,7 6,13 13,13l87 0c1,0 3,0 4,-1l0 -109 72 0 0 110c1,0 2,0 2,0l83 0c7,0 13,-6 13,-13l0 -118 36 0c11,0 17,-14 9,-22l-166 -168c-5,-5 -13,-5 -18,0l-173 168c-8,7 -3,22 9,22z"/></g></svg>
